<svg xmlns="http://www.w3.org/2000/svg" viewBox="0 0 256 256" role="img" aria-label="iLiFE kawaii icon">
  <defs>
    <pattern id="plaid" width="24" height="24" patternUnits="userSpaceOnUse">
      <rect width="24" height="24" fill="#fffdf9" />
      <rect width="24" height="8" y="4" fill="#ffdbeb" opacity="0.78" />
      <rect width="24" height="8" y="16" fill="#d6f8ff" opacity="0.72" />
      <rect width="8" height="24" x="4" fill="#fff4a9" opacity="0.72" />
      <rect width="8" height="24" x="16" fill="#d8ffcc" opacity="0.68" />
    </pattern>
    <linearGradient id="hair" x1="0" y1="0" x2="1" y2="1">
      <stop offset="0%" stop-color="#966070" />
      <stop offset="100%" stop-color="#724554" />
    </linearGradient>
    <linearGradient id="skin" x1="0" y1="0" x2="0" y2="1">
      <stop offset="0%" stop-color="#fff4ee" />
      <stop offset="100%" stop-color="#ffe7db" />
    </linearGradient>
  </defs>

  <rect width="256" height="256" rx="52" fill="url(#plaid)" />

  <path
    d="M128 224c-6 0-11-2-17-6-8-6-55-38-55-88 0-32 24-57 55-57 7 0 13 2 17 4 4-2 10-4 17-4 31 0 55 25 55 57 0 50-47 82-55 88-6 4-11 6-17 6Z"
    fill="#fff7fb"
    stroke="#ff74b1"
    stroke-width="8"
    stroke-linejoin="round"
  />

  <ellipse cx="76" cy="132" rx="20" ry="38" fill="url(#hair)" />
  <ellipse cx="180" cy="132" rx="20" ry="38" fill="url(#hair)" />

  <circle cx="128" cy="126" r="56" fill="url(#hair)" />
  <circle cx="128" cy="136" r="42" fill="url(#skin)" />

  <ellipse cx="112" cy="136" rx="9" ry="11" fill="#4e3742" />
  <ellipse cx="144" cy="136" rx="9" ry="11" fill="#4e3742" />
  <circle cx="109" cy="133" r="3" fill="#ffffff" />
  <circle cx="141" cy="133" r="3" fill="#ffffff" />

  <path d="M118 153q10 7 20 0" fill="none" stroke="#d07897" stroke-width="4" stroke-linecap="round" />
  <ellipse cx="98" cy="149" rx="8" ry="4" fill="#ffb0cc" opacity="0.62" />
  <ellipse cx="158" cy="149" rx="8" ry="4" fill="#ffb0cc" opacity="0.62" />

  <path d="M100 94h16l-5 12h-11ZM140 94h16v12h-11Z" fill="#e9f6ff" stroke="#ba9dc9" stroke-width="2" />
  <path d="M128 177 112 164h32Z" fill="#ffc6df" stroke="#e88cb6" stroke-width="2" />

  <circle cx="201" cy="58" r="10" fill="#ffffff" opacity="0.6" />
  <circle cx="54" cy="200" r="9" fill="#ffffff" opacity="0.45" />
  <path d="M195 88a8 8 0 1 1 16 0 8 8 0 1 1-16 0Z" fill="#ffd6ea" stroke="#cc90c8" stroke-width="2" />
  <path d="M42 88a6 6 0 1 1 12 0 6 6 0 1 1-12 0Z" fill="#e8fbb8" stroke="#d0be86" stroke-width="2" />
</svg>
